<svg id="Layer_1" data-name="Layer 1" xmlns="http://www.w3.org/2000/svg" viewBox="0 0 186.21 418.32"><defs><style>.cls-1,.cls-2{fill:none;stroke:#000;stroke-miterlimit:10;}.cls-1{stroke-width:0.5px;}</style></defs><path class="cls-1" d="M172.44,70.82l-2,357s-2,24,18,26c0,0,44,8,118,1,0,0,15,0,17-12s2-29,2-29l3-339.34a24.56,24.56,0,0,0-4.63-14.71c-4.48-6.11-12.93-13.65-28.33-16.95-22-4.7-64.26-2.64-81.45-1.53A56.29,56.29,0,0,0,188.61,49a43.89,43.89,0,0,0-12.45,10.79A18.28,18.28,0,0,0,172.44,70.82Z" transform="translate(-156.89 -39.65)"/><path class="cls-2" d="M206.46,51.85" transform="translate(-156.89 -39.65)"/><path class="cls-1" d="M207.46,52.85" transform="translate(-156.89 -39.65)"/><path class="cls-1" d="M206.46,52.85l-16,12s-13,11-13,14a21.8,21.8,0,0,1-1,6s-2-1-1-8,18-18,18-18l13-8.67Z" transform="translate(-156.89 -39.65)"/><path class="cls-1" d="M207.46,52.85l-1,3.55s-4,4.45-5,7.45-6,6-6,6a76.15,76.15,0,0,0-9,7,30.83,30.83,0,0,0-5,7s-3,12-2,17c0,0-3,1-3.49-16l1.09-2.3.4-3.7.91-2,2.46-3,2.46-2.52,3.76-3.52,4.44-3.78,4.54-3.4,10.43-7.83Z" transform="translate(-156.89 -39.65)"/><path class="cls-1" d="M294.18,52.85" transform="translate(-156.89 -39.65)"/><path class="cls-1" d="M293.18,53.85" transform="translate(-156.89 -39.65)"/><path class="cls-1" d="M293.18,53.85l1,3.55s4,4.45,5,7.45,6,6,6,6a76.15,76.15,0,0,1,9,7,30.83,30.83,0,0,1,5,7s3,12,2,17c0,0,3,1,3.5-16l-1.09-2.3-.41-3.7-.9-2-2.46-3-2.46-2.52-3.76-3.52-4.44-3.78-4.54-3.4-10.44-7.83Z" transform="translate(-156.89 -39.65)"/><path class="cls-1" d="M298.18,62.75a66.91,66.91,0,0,0-31.55-8.9,346.65,346.65,0,0,0-34.86,0c-17.7,1-29.55,8.35-29.55,8.35L203,61l3.5-4.56s4-5.55,13-8.55c6.77-2.25,37.63-1.12,52.54-.41a34.8,34.8,0,0,1,18.34,6.07A19.2,19.2,0,0,1,294,56.66C297.46,60.85,298.18,62.75,298.18,62.75Z" transform="translate(-156.89 -39.65)"/><path class="cls-2" d="M294.18,51.85s1.28,0-6.72-3-33-6-51.5-4.28-28.5,6.61-28.5,6.61l-1,.67" transform="translate(-156.89 -39.65)"/><path class="cls-2" d="M186.75,77.86" transform="translate(-156.89 -39.65)"/><path class="cls-1" d="M186.75,77.86s-3.29,16-1.29,25c0,0,2.64-9,36.32-12.49,0,0,73-5.51,92.32,12.49,0,0,1.68-20-1-26" transform="translate(-156.89 -39.65)"/><path class="cls-1" d="M184.93,99s13.53-14.15,48.53-17.15c0,0,43.34-3.85,66.67,8.58,0,0,9.66,3.49,14.5,9.46" transform="translate(-156.89 -39.65)"/><path class="cls-2" d="M310.51,100.87" transform="translate(-156.89 -39.65)"/><line class="cls-1" x1="153.21" y1="60.24" x2="153.21" y2="68.51"/><line class="cls-1" x1="32.21" y1="59.24" x2="32.21" y2="67.51"/><path class="cls-1" d="M177,96.23h0a14.12,14.12,0,0,0-2.56,8.12v46.38a7.13,7.13,0,0,1-2.48-1.22" transform="translate(-156.89 -39.65)"/><path class="cls-2" d="M323.43,98.06h0a10.69,10.69,0,0,1,2,6.27v47.81a5.91,5.91,0,0,0,2.29-1.41" transform="translate(-156.89 -39.65)"/><path class="cls-1" d="M189.1,166c-2-6.55-3.54-40.23-4-51.4a7.45,7.45,0,0,1,3.21-6.45,28.37,28.37,0,0,1,9-4.09c7.71-2,24-3,25.91-3.15l.37,0c3.51-.39,57-6.06,86.79,7.47a7.35,7.35,0,0,1,4.3,6.9v.14c-.17,4.5-4.12,51.85-4.12,51.85" transform="translate(-156.89 -39.65)"/><path class="cls-1" d="M185.46,102.85a7.68,7.68,0,0,0-2.52,4.31c-.48,2.69,1.09,48.72,3.81,61.71" transform="translate(-156.89 -39.65)"/><path class="cls-1" d="M314.13,102.85a7.66,7.66,0,0,1,2.53,4.31c.47,2.69-1.09,48.72-3.81,61.71" transform="translate(-156.89 -39.65)"/><path class="cls-1" d="M187.05,149.19s31.41,1.66,45.41-1.34,22-4,30-1,3,5,16,7,18.48,0,18.48,0,10.65-4.3,15.59-11.15" transform="translate(-156.89 -39.65)"/><path class="cls-1" d="M189.46,423.85s-12,15-2,21,43,7,43,7,30,0,50-1,23-3,23-3,6-2,8-6-4-16-4-16l2-4s5,11,7,19-8,9-8,9c-49,9-100,3-100,3-8,0-24-4-24-4s-6-2-5.89-8,7.91-19.8,7.91-19.8l1-1.19Z" transform="translate(-156.89 -39.65)"/><path class="cls-2" d="M202.46,441.85" transform="translate(-156.89 -39.65)"/><path class="cls-1" d="M189.46,423.85s4,14,14,19,77,3,77,3,12-2,17-6,12-19,12-19a7,7,0,0,0-1.77-1.16,9.27,9.27,0,0,0-9.6,1.16l-.09.08a24.12,24.12,0,0,1-14.65,4.92H211.58a20,20,0,0,1-12.7-4.36c-.29-.23-.58-.48-.86-.75a8.6,8.6,0,0,0-9-1.86,4.65,4.65,0,0,0-1.6,1Z" transform="translate(-156.89 -39.65)"/><path class="cls-2" d="M198,420.74s1.44,14.11,5.44,22.11" transform="translate(-156.89 -39.65)"/><path class="cls-1" d="M298,420.93s-.67,13-5.1,21.46" transform="translate(-156.89 -39.65)"/><path class="cls-1" d="M183.93,448.65s-13.47-.8-10.47-21.8c0,0-3.47,3-2.23,10.48" transform="translate(-156.89 -39.65)"/><path class="cls-2" d="M323.46,427.85" transform="translate(-156.89 -39.65)"/><path class="cls-1" d="M309.46,449.69s7,.16,10-3.84,3-18,3-18,2.47.86,2.23,4.43" transform="translate(-156.89 -39.65)"/><polyline class="cls-1" points="17.63 124.48 17.06 203.28 16.57 311.2"/><path class="cls-1" d="M171.24,350.85h4.64v73.87s-1.25,4.92,2.67,4,7.91-17.9,7.91-17.9V335.73s-.28.47-.77,1.24c-1.77,2.8-6.31,9.53-10.23,11.88l1-80s5-23,8-23a79.67,79.67,0,0,1,1,11v80" transform="translate(-156.89 -39.65)"/><path class="cls-1" d="M175.84,337.36a26.46,26.46,0,0,0,9.62-5.9" transform="translate(-156.89 -39.65)"/><rect x="15.07" y="340.7" width="2" height="22" rx="1"/><rect x="165.07" y="340.7" width="2" height="22" rx="1"/><path class="cls-1" d="M309.46,338.64v76.5a1.1,1.1,0,0,0,.08.4c.62,1.64,5.2,13.38,8.92,14.31,3.9,1,2.11-20.81,2-22a.33.33,0,0,1,0-.1l.49-58.69a1.12,1.12,0,0,0-.36-.84,69.36,69.36,0,0,1-9-10.22l0,0A1.14,1.14,0,0,0,309.46,338.64Z" transform="translate(-156.89 -39.65)"/><path class="cls-1" d="M321,348.6l.5-78.75s-5-21-7-23S312,338.61,312,338.61" transform="translate(-156.89 -39.65)"/><path class="cls-1" d="M312.46,332.85s2,4,8,6" transform="translate(-156.89 -39.65)"/><path class="cls-1" d="M172,242.94s4.28.94,6.89-2.07,6.61-5.72,8.61-2.37v77" transform="translate(-156.89 -39.65)"/><path class="cls-1" d="M326.46,244.8s-4.27.94-6.88-2.07S313,237,311,240.36v77" transform="translate(-156.89 -39.65)"/><polyline class="cls-1" points="168.7 125.1 167.55 204.53 167.55 229.68 169.57 229.68"/><line class="cls-1" x1="167.07" y1="312.54" x2="167.07" y2="229.68"/><path class="cls-2" d="M321.46,351.49s1.08,2,4.54.7" transform="translate(-156.89 -39.65)"/><path class="cls-2" d="M177,117.36" transform="translate(-156.89 -39.65)"/><path class="cls-1" d="M177,162c-3.43,3.18-14.58,7.82-14.58,7.82s-4.56,1-5.28-1,8.36-13.05,14.82-16a6.21,6.21,0,0,1,6.34,0c3.12,2,3.68,1.9,3.68,1.9l.83,7.29H177L176,242.94" transform="translate(-156.89 -39.65)"/><path class="cls-1" d="M323,162.85c3.43,3.18,14.58,7.83,14.58,7.83s4.56,1,5.28-1-8.36-13.05-14.82-16a6.21,6.21,0,0,0-6.34,0c-3.12,2-3.68,1.9-3.68,1.9l-.83,7.29H323" transform="translate(-156.89 -39.65)"/><line class="cls-1" x1="27.36" y1="197.3" x2="25.96" y2="122.38"/><line class="cls-1" x1="22.82" y1="122.38" x2="22.82" y2="191.89"/><path class="cls-1" d="M177,233.24s1.79-3,7.11-1.7" transform="translate(-156.89 -39.65)"/><line class="cls-1" x1="165.27" y1="123.2" x2="165.27" y2="204.83"/><polyline class="cls-1" points="157.74 199.16 158.57 132.2 160.25 123.2"/><polyline class="cls-1" points="157.91 192.89 161.82 192.89 162.82 123.2"/><line class="cls-2" x1="164.57" y1="193.94" x2="161.82" y2="192.89"/><polyline class="cls-1" points="161.09 115.91 164.57 78.85 165.27 113.11"/><path class="cls-1" d="M177,151.94V117.36s2.78,9.69,4.1,37.09" transform="translate(-156.89 -39.65)"/><path class="cls-1" d="M182.85,122.44s-3.71-1.78-4.55,1.32" transform="translate(-156.89 -39.65)"/><path class="cls-1" d="M316.75,122.53a4,4,0,0,1,4.16,1.85" transform="translate(-156.89 -39.65)"/><path class="cls-1" d="M294.18,53.85l16,12s13,11,13,14a21.8,21.8,0,0,0,1,6s2-1,1-8-18-18-18-18l-13-8.67Z" transform="translate(-156.89 -39.65)"/></svg>