<svg id="Layer_1" data-name="Layer 1" xmlns="http://www.w3.org/2000/svg" viewBox="0 0 172.1 167.5"><defs><style>.cls-1,.cls-2{fill:none;stroke:#000;stroke-miterlimit:10;}.cls-2{stroke-width:0.5px;}</style></defs><path class="cls-1" d="M166.88,232.5" transform="translate(-143.75 -148.75)"/><path class="cls-2" d="M155.44,248.66s0-13.47,11.44-16.16c0,0,5-16.2-8.47-31.7a11.65,11.65,0,0,1-3-7.63V174.1s-2.86-22.41,25.74-25.1h99.59s23.39,2.69,26.25,24.24V193a13.45,13.45,0,0,1-3.54,9.14,34.94,34.94,0,0,0-8.94,30.36s15.34,5.39,12.48,16.16" transform="translate(-143.75 -148.75)"/><path class="cls-2" d="M301.3,248.66v48.59l.1,0a18.46,18.46,0,0,0,14.2-17.64V259.32c0-6.93-6.79-12.31-14-10.74Z" transform="translate(-143.75 -148.75)"/><path class="cls-2" d="M158.3,248.66v48.59l-.1,0A18.46,18.46,0,0,1,144,279.59V259.32c0-6.93,6.79-12.31,14-10.74Z" transform="translate(-143.75 -148.75)"/><path class="cls-2" d="M158.3,297.15A51.41,51.41,0,0,0,192.62,316H263s26.88.22,38.32-18.75" transform="translate(-143.75 -148.75)"/><path class="cls-2" d="M294.54,232.5c-3.08,3.69-9.15,7.94-14.83,11.48a53.83,53.83,0,0,1-26.52,7.93c-17.19.61-46,1.28-57.71-.56C178.32,248.66,168,233.5,168,233.5l-1.16-.88" transform="translate(-143.75 -148.75)"/><path class="cls-2" d="M178.42,243.57s-8.68,10.48-5.82,23.95S204.06,281,204.06,281h60.06s22.88-2.69,25.74-18.85-8.58-19.6-8.58-19.6V211c0-3.68,2.67-8,4.36-10.35a7.29,7.29,0,0,0,1.36-4.25V175.94c-2.86-16.17-14.3-16.17-14.3-16.17H195.48s-17.16,0-17.16,10.78l-1.57,25.23a10,10,0,0,0,1.27,5.47c1.35,2.44,3.16,6.33,3.16,9.7v34l-.13.58" transform="translate(-143.75 -148.75)"/><path d="M264.12,281.92v7.18A22.06,22.06,0,0,1,248.44,310l-.18.06a13.55,13.55,0,0,1-4,.57H218.93a26.54,26.54,0,0,1-9.21-1.48c-.57-.21-1.12-.44-1.65-.67a21.13,21.13,0,0,1-12.41-19.3V281l.85-.5,6.78.49h60.83Z" transform="translate(-143.75 -148.75)"/><path class="cls-2" d="M166.88,232.5" transform="translate(-143.75 -148.75)"/></svg>