<svg id="Layer_1" data-name="Layer 1" xmlns="http://www.w3.org/2000/svg" viewBox="0 0 69.63 69.64"><path d="M250.18,215.37a34.82,34.82,0,1,1-34.81,34.78A34.9,34.9,0,0,1,250.18,215.37Zm15.89,27.83c2.52,0,5.05,0,7.58,0a2.33,2.33,0,0,0,2.23-3.32c-4.38-10.78-15.31-18.72-28.15-17.4-11,1.13-18.71,7.2-23.19,17.32a2.31,2.31,0,0,0,2.23,3.4q7.62,0,15.24,0a1.35,1.35,0,0,0,.85-.37,10.23,10.23,0,0,1,14.64,0,1.45,1.45,0,0,0,.91.39C261,243.22,263.51,243.2,266.07,243.2Zm.06,14c-2.57,0-5.15,0-7.73,0a2,2,0,0,0-.94.36q-1.89,1.26-3.75,2.58a1,1,0,0,0-.36.65,25.92,25.92,0,0,0,.13,2.64A22.83,22.83,0,0,0,258,275.13a2.36,2.36,0,0,0,3.11.78,27.86,27.86,0,0,0,14.83-15.24,2.37,2.37,0,0,0-2.34-3.5Zm-32.09,0H226.6a2.38,2.38,0,0,0-2.31,3.57,28.56,28.56,0,0,0,14.5,14.75,2.41,2.41,0,0,0,3.37-.87,21.08,21.08,0,0,0,4.16-14.3.85.85,0,0,0-.47-.57,10.48,10.48,0,0,1-3.34-2.16,1.39,1.39,0,0,0-.89-.41C239.09,257.15,236.56,257.17,234,257.17Zm12.68-7.05a3.47,3.47,0,1,0,3.56-3.4A3.24,3.24,0,0,0,246.72,250.12Z" transform="translate(-215.37 -215.37)"/></svg>